<svg width="200" height="200" viewBox="0 0 200 200" fill="none" xmlns="http://www.w3.org/2000/svg">
<rect width="200" height="200" rx="100" fill="url(#paint0_linear_8_22)"/>
<path d="M78.1016 81.9766H73.4609V89.5H68.0234V81.9766H52.4375V77.8047L68.0938 55.1406H73.4609V77.4062H78.1016V81.9766ZM68.0234 77.4062V68.8984C68.0234 68.1953 68.0312 67.4844 68.0469 66.7656C68.0781 66.0312 68.1094 65.3281 68.1406 64.6562C68.1719 63.9844 68.2031 63.3672 68.2344 62.8047C68.2656 62.2266 68.2891 61.75 68.3047 61.375H68.1172C67.8203 62 67.4922 62.6406 67.1328 63.2969C66.7734 63.9375 66.3906 64.5625 65.9844 65.1719L57.5469 77.4062H68.0234ZM104.568 72.3438C104.568 75.1094 104.349 77.5859 103.912 79.7734C103.49 81.9453 102.818 83.7891 101.896 85.3047C100.974 86.8203 99.7712 87.9766 98.2869 88.7734C96.8025 89.5703 95.0056 89.9688 92.8962 89.9688C90.2556 89.9688 88.0759 89.2734 86.3572 87.8828C84.6384 86.4766 83.365 84.4609 82.5369 81.8359C81.7087 79.1953 81.2947 76.0312 81.2947 72.3438C81.2947 68.6562 81.6697 65.5 82.4197 62.875C83.1853 60.2344 84.4197 58.2109 86.1228 56.8047C87.8259 55.3984 90.0837 54.6953 92.8962 54.6953C95.5525 54.6953 97.74 55.3984 99.4587 56.8047C101.193 58.1953 102.474 60.2109 103.302 62.8516C104.146 65.4766 104.568 68.6406 104.568 72.3438ZM86.8494 72.3438C86.8494 75.2344 87.0369 77.6484 87.4119 79.5859C87.8025 81.5234 88.4431 82.9766 89.3337 83.9453C90.2244 84.8984 91.4119 85.375 92.8962 85.375C94.3806 85.375 95.5681 84.8984 96.4587 83.9453C97.3494 82.9922 97.99 81.5469 98.3806 79.6094C98.7869 77.6719 98.99 75.25 98.99 72.3438C98.99 69.4688 98.7947 67.0625 98.4041 65.125C98.0134 63.1875 97.3728 61.7344 96.4822 60.7656C95.5916 59.7812 94.3962 59.2891 92.8962 59.2891C91.3962 59.2891 90.2009 59.7812 89.3103 60.7656C88.4353 61.7344 87.8025 63.1875 87.4119 65.125C87.0369 67.0625 86.8494 69.4688 86.8494 72.3438ZM116.386 54.7422C118.902 54.7422 120.808 55.6797 122.105 57.5547C123.402 59.4141 124.05 62.0469 124.05 65.4531C124.05 68.8438 123.425 71.4922 122.175 73.3984C120.941 75.3047 119.011 76.2578 116.386 76.2578C113.933 76.2578 112.066 75.3047 110.785 73.3984C109.503 71.4922 108.863 68.8438 108.863 65.4531C108.863 62.0469 109.464 59.4141 110.667 57.5547C111.886 55.6797 113.792 54.7422 116.386 54.7422ZM116.41 58.5859C115.394 58.5859 114.644 59.1562 114.16 60.2969C113.691 61.4375 113.457 63.1641 113.457 65.4766C113.457 67.7734 113.691 69.5078 114.16 70.6797C114.644 71.8359 115.394 72.4141 116.41 72.4141C117.441 72.4141 118.207 71.8359 118.707 70.6797C119.222 69.5234 119.48 67.7891 119.48 65.4766C119.48 63.1797 119.23 61.4609 118.73 60.3203C118.23 59.1641 117.457 58.5859 116.41 58.5859ZM139.402 55.2344L120.394 89.5H115.871L134.878 55.2344H139.402ZM138.769 68.4531C141.285 68.4531 143.191 69.3906 144.488 71.2656C145.8 73.125 146.457 75.7578 146.457 79.1641C146.457 82.5391 145.832 85.1797 144.582 87.0859C143.347 88.9922 141.41 89.9453 138.769 89.9453C136.316 89.9453 134.449 88.9922 133.167 87.0859C131.886 85.1797 131.246 82.5391 131.246 79.1641C131.246 75.7578 131.847 73.125 133.05 71.2656C134.269 69.3906 136.175 68.4531 138.769 68.4531ZM138.792 72.2969C137.777 72.2969 137.027 72.8672 136.542 74.0078C136.074 75.1484 135.839 76.875 135.839 79.1875C135.839 81.4844 136.074 83.2188 136.542 84.3906C137.027 85.5469 137.777 86.125 138.792 86.125C139.839 86.125 140.613 85.5547 141.113 84.4141C141.613 83.2578 141.863 81.5156 141.863 79.1875C141.863 76.8906 141.613 75.1719 141.113 74.0312C140.613 72.875 139.839 72.2969 138.792 72.2969Z" fill="#333235"/>
<path d="M74.7227 143.115C74.7227 144.723 74.3268 146.109 73.5352 147.271C72.7559 148.434 71.6302 149.325 70.1582 149.943C68.6986 150.562 66.9544 150.871 64.9258 150.871C63.9362 150.871 62.9899 150.815 62.0869 150.704C61.1839 150.593 60.3304 150.432 59.5264 150.222C58.7347 149.999 58.0111 149.733 57.3555 149.424V145.23C58.4564 145.713 59.6872 146.152 61.0479 146.548C62.4085 146.931 63.7939 147.123 65.2041 147.123C66.3545 147.123 67.307 146.975 68.0615 146.678C68.8285 146.368 69.3975 145.936 69.7686 145.379C70.1396 144.81 70.3252 144.148 70.3252 143.394C70.3252 142.59 70.1087 141.909 69.6758 141.353C69.2428 140.796 68.5872 140.289 67.709 139.831C66.8431 139.361 65.7546 138.86 64.4434 138.328C63.5527 137.969 62.6992 137.561 61.8828 137.104C61.0788 136.646 60.3613 136.108 59.7305 135.489C59.0996 134.871 58.5986 134.141 58.2275 133.3C57.8688 132.446 57.6895 131.444 57.6895 130.294C57.6895 128.76 58.0544 127.449 58.7842 126.36C59.5264 125.272 60.5654 124.437 61.9014 123.855C63.2497 123.274 64.8206 122.983 66.6143 122.983C68.0368 122.983 69.3727 123.132 70.6221 123.429C71.8838 123.726 73.1208 124.146 74.333 124.69L72.9229 128.271C71.8096 127.814 70.7272 127.449 69.6758 127.177C68.6367 126.905 67.5729 126.769 66.4844 126.769C65.5443 126.769 64.7464 126.911 64.0908 127.195C63.4352 127.48 62.9342 127.882 62.5879 128.401C62.2539 128.909 62.0869 129.515 62.0869 130.22C62.0869 131.011 62.2786 131.679 62.6621 132.224C63.0579 132.756 63.6641 133.244 64.4805 133.689C65.3092 134.135 66.373 134.63 67.6719 135.174C69.1686 135.792 70.4365 136.442 71.4756 137.122C72.527 137.802 73.3311 138.619 73.8877 139.571C74.4443 140.511 74.7227 141.693 74.7227 143.115ZM96.9556 150.5L94.3023 142.967H83.9302L81.2769 150.5H76.5826L86.6763 123.262H91.6119L101.687 150.5H96.9556ZM93.1519 139.145L90.5728 131.723C90.4739 131.401 90.3316 130.95 90.1461 130.368C89.9605 129.774 89.775 129.174 89.5894 128.568C89.4039 127.95 89.2492 127.43 89.1255 127.01C89.0018 127.517 88.8472 128.086 88.6617 128.717C88.4885 129.335 88.3153 129.917 88.1421 130.461C87.9813 131.005 87.8576 131.426 87.7711 131.723L85.1734 139.145H93.1519ZM105.458 150.5V123.373H109.911V146.715H121.434V150.5H105.458ZM141.681 150.5H126.318V123.373H141.681V127.121H130.771V134.487H140.995V138.217H130.771V146.733H141.681V150.5Z" fill="white"/>
<defs>
<linearGradient id="paint0_linear_8_22" x1="200" y1="-1.35564e-05" x2="0.711205" y2="-1.40864" gradientUnits="userSpaceOnUse">
<stop offset="0.180555" stop-color="#FF626D"/>
<stop offset="0.836805" stop-color="#FCAD72"/>
</linearGradient>
</defs>
</svg>
