<svg width="45" height="44" viewBox="0 0 45 44" fill="none" xmlns="http://www.w3.org/2000/svg">
<rect x="0.384766" width="44" height="44" rx="22" fill="#333235"/>
<path d="M17.1348 16.9483V15.8166C17.1348 13.1916 19.2465 10.6133 21.8715 10.3683C22.6008 10.2966 23.3371 10.3785 24.033 10.6086C24.7288 10.8386 25.3687 11.2118 25.9116 11.7042C26.4545 12.1965 26.8883 12.7971 27.1851 13.4672C27.4819 14.1373 27.6351 14.8621 27.6348 15.595V17.205M18.8848 33.6666H25.8848C30.5748 33.6666 31.4148 31.7883 31.6598 29.5016L32.5348 22.5016C32.8498 19.655 32.0331 17.3333 27.0515 17.3333H17.7181C12.7365 17.3333 11.9198 19.655 12.2348 22.5016L13.1098 29.5016C13.3548 31.7883 14.1948 33.6666 18.8848 33.6666Z" stroke="white" stroke-width="1.5" stroke-miterlimit="10" stroke-linecap="round" stroke-linejoin="round"/>
<path d="M26.4623 22H26.474M18.2957 22H18.305" stroke="white" stroke-width="2" stroke-linecap="round" stroke-linejoin="round"/>
</svg>
