<svg width="32" height="32" viewBox="0 0 32 32" fill="none" xmlns="http://www.w3.org/2000/svg">
<path d="M12 29.3334H20C26.6666 29.3334 29.3333 26.6667 29.3333 20V12C29.3333 5.33335 26.6666 2.66669 20 2.66669H12C5.33329 2.66669 2.66663 5.33335 2.66663 12V20C2.66663 26.6667 5.33329 29.3334 12 29.3334Z" stroke="white" stroke-width="1.5" stroke-linecap="round" stroke-linejoin="round"/>
<path d="M16 20.6666C16.6129 20.6666 17.2197 20.5459 17.7859 20.3114C18.3521 20.0769 18.8665 19.7332 19.2999 19.2998C19.7332 18.8665 20.077 18.352 20.3115 17.7858C20.546 17.2196 20.6667 16.6128 20.6667 16C20.6667 15.3871 20.546 14.7803 20.3115 14.2141C20.077 13.6479 19.7332 13.1335 19.2999 12.7001C18.8665 12.2668 18.3521 11.9231 17.7859 11.6885C17.2197 11.454 16.6129 11.3333 16 11.3333C14.7624 11.3333 13.5754 11.825 12.7002 12.7001C11.825 13.5753 11.3334 14.7623 11.3334 16C11.3334 17.2377 11.825 18.4246 12.7002 19.2998C13.5754 20.175 14.7624 20.6666 16 20.6666Z" stroke="white" stroke-width="1.5" stroke-linecap="round" stroke-linejoin="round"/>
<path d="M23.5146 9.33331H23.5306" stroke="white" stroke-width="2" stroke-linecap="round" stroke-linejoin="round"/>
</svg>
