<svg width="45" height="44" viewBox="0 0 45 44" fill="none" xmlns="http://www.w3.org/2000/svg">
<rect x="0.384766" width="44" height="44" rx="22" fill="#333235"/>
<path d="M22.5714 20.6817C22.4548 20.67 22.3148 20.67 22.1864 20.6817C20.8473 20.6362 19.5785 20.0713 18.6487 19.1066C17.7188 18.142 17.201 16.8532 17.2048 15.5134C17.2048 12.655 19.5148 10.3334 22.3848 10.3334C23.0643 10.3211 23.7395 10.4428 24.3719 10.6915C25.0044 10.9402 25.5817 11.311 26.0708 11.7828C26.5599 12.2546 26.9513 12.8182 27.2227 13.4412C27.494 14.0643 27.64 14.7347 27.6523 15.4142C27.6645 16.0937 27.5428 16.7689 27.2941 17.4014C27.0454 18.0338 26.6746 18.6111 26.2028 19.1002C25.731 19.5894 25.1675 19.9808 24.5444 20.2521C23.9213 20.5235 23.2509 20.6694 22.5714 20.6817ZM16.7381 24.9867C13.9148 26.8767 13.9148 29.9567 16.7381 31.835C19.9464 33.9817 25.2081 33.9817 28.4164 31.835C31.2398 29.945 31.2398 26.865 28.4164 24.9867C25.2198 22.8517 19.9581 22.8517 16.7381 24.9867Z" stroke="white" stroke-width="1.5" stroke-linecap="round" stroke-linejoin="round"/>
</svg>
