<svg width="80" height="80" viewBox="0 0 80 80" fill="none" xmlns="http://www.w3.org/2000/svg">
<g clip-path="url(#clip0_55_454)">
<path d="M39.7869 59.84C39.7869 57.6933 41.5102 55.9733 43.6602 55.9733C45.8069 55.9733 47.5269 57.6933 47.5269 59.84C47.5287 60.3484 47.4299 60.8522 47.2362 61.3223C47.0426 61.7924 46.7579 62.2196 46.3985 62.5792C46.0392 62.9389 45.6122 63.224 45.1423 63.418C44.6723 63.6121 44.1687 63.7113 43.6602 63.71C43.1515 63.7122 42.6474 63.6137 42.1769 63.4203C41.7064 63.2268 41.2789 62.9422 40.9188 62.5828C40.5588 62.2234 40.2735 61.7963 40.0792 61.3261C39.8849 60.856 39.7856 60.3487 39.7869 59.84ZM55.5336 59.8433C55.5336 57.6933 57.2569 55.97 59.4036 55.97C61.5502 55.97 63.2736 57.6933 63.2736 59.84C63.2736 61.9867 61.5502 63.71 59.4069 63.71C58.8982 63.7122 58.3941 63.6137 57.9236 63.4203C57.4531 63.2268 57.0255 62.9422 56.6655 62.5828C56.3055 62.2234 56.0201 61.7963 55.8259 61.3261C55.6316 60.856 55.5323 60.352 55.5336 59.8433ZM19.0336 59.8433C19.0336 57.6933 20.7569 55.97 22.9036 55.97C25.0502 55.97 26.7702 57.6933 26.7702 59.84C26.7702 61.9867 25.0502 63.71 22.9036 63.71C22.3951 63.7118 21.8914 63.613 21.4213 63.4193C20.9512 63.2257 20.524 62.941 20.1643 62.5816C19.8047 62.2222 19.5196 61.7953 19.3255 61.3254C19.1315 60.8554 19.0323 60.3518 19.0336 59.8433ZM3.28691 59.8433C3.28691 57.6933 5.01024 55.97 7.15691 55.97C9.30358 55.97 11.0269 57.6933 11.0269 59.84C11.0287 60.3487 10.9298 60.8527 10.7359 61.3231C10.5421 61.7934 10.2571 62.2207 9.89734 62.5804C9.53763 62.9401 9.1103 63.2251 8.63998 63.419C8.16965 63.6129 7.66562 63.7118 7.15691 63.71C6.64876 63.7113 6.14536 63.6122 5.67564 63.4184C5.20592 63.2245 4.77914 62.9397 4.41982 62.5804C4.06051 62.2211 3.77574 61.7943 3.58189 61.3246C3.38804 60.8549 3.28559 60.3515 3.28691 59.8433ZM35.1236 53.0033H31.7569V66.5467H35.1236V53.0033ZM11.0002 66.5467H14.3669V53.0033H11.0002V54.09C9.8267 53.2733 8.43001 52.838 7.00024 52.8433C3.12691 52.8433 0.000244141 55.97 0.000244141 59.8433C0.000244141 63.7367 3.12691 66.84 7.00024 66.84C8.48358 66.84 9.86024 66.39 11.0002 65.5933V66.5467ZM63.2469 66.5467H66.6136V53.0033H63.2469V54.09C62.0734 53.2733 60.6767 52.838 59.2469 52.8433C55.3736 52.8433 52.2469 55.97 52.2469 59.8433C52.2438 60.7633 52.4228 61.6748 52.7735 62.5253C53.1243 63.3757 53.6398 64.1484 54.2905 64.7988C54.9412 65.4491 55.7141 65.9643 56.5647 66.3147C57.4154 66.665 58.327 66.8435 59.2469 66.84C60.7302 66.84 62.1069 66.39 63.2469 65.5933V66.5467ZM67.8602 62.1467C67.9669 64.88 70.3002 66.8133 74.1936 66.8133C77.3769 66.8133 80.0002 65.4333 80.0002 62.3867C80.0002 60.2667 78.8069 59.02 76.0502 58.4867L73.9036 58.0667C72.5236 57.8 71.5702 57.5333 71.5702 56.7133C71.5702 55.8133 72.4969 55.4133 73.6636 55.4133C75.3636 55.4133 76.0502 56.2633 76.1036 57.27H79.4969C79.3102 54.62 77.1902 52.8433 73.7702 52.8433C70.2469 52.8433 68.1502 54.7767 68.1502 57.2967C68.1502 60.37 70.6436 60.8733 72.7902 61.2733L74.5669 61.59C75.8402 61.83 76.3969 62.2 76.3969 62.9433C76.3969 63.6067 75.7602 64.2667 74.2469 64.2667C72.0469 64.2667 71.3336 63.1267 71.3069 62.1467H67.8602ZM26.7469 48.39V54.09C25.5734 53.2733 24.1767 52.838 22.7469 52.8433C18.8736 52.8433 15.7469 55.97 15.7469 59.8433C15.7469 63.7367 18.8736 66.84 22.7469 66.84C24.2269 66.84 25.6069 66.39 26.7469 65.5933V66.5467H30.1136V48.39H26.7469ZM47.5002 48.39V54.09C46.3267 53.2733 44.93 52.838 43.5002 52.8433C39.6302 52.8433 36.5002 55.97 36.5002 59.8433C36.4972 60.7633 36.6761 61.6748 37.0269 62.5253C37.3776 63.3757 37.8932 64.1484 38.5438 64.7988C39.1945 65.4491 39.9674 65.9643 40.8181 66.3147C41.6687 66.665 42.5803 66.8435 43.5002 66.84C44.9836 66.84 46.3602 66.39 47.5002 65.5933V66.5467H50.8669V48.39H47.5002ZM8.74691 44.39L11.0269 48.39H26.7469L20.5169 37.6267L8.75024 44.3867L8.74691 44.39ZM35.1236 51.7567V48.39H47.5002L34.3002 25.54L22.5036 32.3L31.7569 48.39V51.7567H35.1236ZM52.5136 48.39H68.2569L47.9002 13.16L36.1302 19.9467L52.5136 48.39Z" fill="white"/>
</g>
<defs>
<clipPath id="clip0_55_454">
<rect width="80" height="80" fill="white" transform="translate(0.000244141)"/>
</clipPath>
</defs>
</svg>
