<svg width="80" height="80" viewBox="0 0 80 80" fill="none" xmlns="http://www.w3.org/2000/svg">
<g clip-path="url(#clip0_55_555)">
<path d="M8.07272 56.7315C6.59134 56.7315 5.87998 53.2241 6.25033 49.1643C7.01862 40.7542 11.9533 28.2897 15.3157 28.2897C17.7707 28.2897 17.582 35.0443 16.1449 40.8091L15.3502 43.5145C12.4996 52.1299 9.85658 56.7315 8.07272 56.7315ZM20.0928 0.0143661C15.8011 0.0196777 11.0734 8.10392 8.10665 15.7615L8.3407 16.8061C12.9464 6.86455 19.3394 0.3968 21.102 10.0958C22.0325 15.2144 20.4522 25.5454 18.2278 33.7146C18.7615 30.1063 18.4096 23.1817 15.3082 23.1817C10.1504 23.18 0.000488281 44.2139 0.000488281 65.7346C0.000488281 74.3589 1.94249 79.9856 5.1416 79.9856C13.7072 79.9856 25.3248 36.7564 25.3248 15.0444C25.3242 7.37623 23.8911 0.0143661 20.0928 0.0143661ZM31.1197 56.7315C30.6223 56.7315 30.2071 56.1915 29.9477 55.2195C29.6769 54.1926 29.5964 52.7425 29.7252 51.2393C30.0087 47.9798 31.149 45.4284 32.3205 45.4284H35.0762L34.0928 56.7333L31.1197 56.7315ZM39.0441 22.8365C38.2546 19.8514 36.9797 18.5182 36.0653 18.5182H31.0553L30.2048 28.2826H34.929L35.381 28.4296C35.3861 28.4296 35.8163 28.5836 36.0538 29.5769C36.2482 30.4037 36.2758 31.6378 36.1372 33.2507L35.9135 35.818H32.9375C30.375 35.818 26.8038 41.4749 26.0085 50.6161C25.6123 55.1752 25.9591 59.1235 26.7285 62.0254C27.4922 64.9043 28.9316 66.4889 30.4877 66.4889H33.244L33.2429 66.4924H36.7473L38.3903 47.5973L39.6002 33.7075C40.0752 28.2525 39.5606 24.7823 39.0441 22.8365ZM73.4539 18.5182C72.0991 18.5182 70.8408 19.7522 69.8155 22.0911C68.7815 24.4494 68.211 27.2858 67.8712 31.1916C67.1345 39.6583 69.2944 43.7447 71.0329 46.6395C72.2779 48.7199 73.3539 50.5116 73.1221 53.1674C72.9565 55.0743 72.6868 56.7404 71.1542 56.7404H66.4766L65.6272 66.5066H70.804C72.1922 66.5066 73.474 65.6143 74.5063 63.1745C75.5408 60.7276 76.1234 57.314 76.4857 53.1515C76.8319 49.1873 76.5967 45.4037 75.7697 42.5761C75.0802 40.2089 74.0859 38.5606 73.2112 37.1052C72.0904 35.2461 71.0335 33.4933 71.2186 31.3669C71.3302 30.085 71.7465 28.2897 72.6511 28.2897H77.1999L78.0504 18.5253H73.4528V18.5182H73.4539ZM46.3067 18.5182C44.9518 18.5182 43.693 19.7522 42.6682 22.0911C41.6343 24.4494 41.0644 27.2858 40.7222 31.1916C39.9855 39.6583 42.1478 43.7447 43.8845 46.6395C45.1301 48.7199 46.2066 50.5116 45.9749 53.1674C45.8087 55.0743 45.539 56.7404 44.0058 56.7404H39.33L38.4794 66.5066H43.6568C45.0461 66.5066 46.328 65.6143 47.3591 63.1745C48.3942 60.7276 48.9767 57.314 49.3384 53.1515C49.6846 49.1873 49.4489 45.4037 48.6236 42.5761C47.9347 40.2089 46.9393 38.5606 46.0629 37.1052C44.9432 35.2461 43.8862 33.4933 44.072 31.3669C44.183 30.085 44.5999 28.2897 45.5027 28.2897H50.0504L50.9015 18.5253H46.3061L46.3067 18.5182ZM53.3714 18.5182L49.3108 66.4977H52.7411L56.7994 18.5182H53.3714ZM65.9274 18.5182C59.8881 18.5854 56.7281 30.9703 55.7234 42.5071C54.5336 56.188 56.8989 66.4995 61.2245 66.4995H64.124L64.9734 56.7333H62.0756C60.4562 56.7333 58.2296 52.808 59.1273 42.5071C59.8398 34.3166 62.4316 28.2826 65.2787 28.2826H67.1184L67.9689 18.5182H65.9274ZM77.8106 64.3041H78.1102V62.229H78.3489C78.5093 62.229 78.6215 62.2821 78.683 62.3954C78.7911 62.592 78.8463 62.9974 78.8463 63.6065V64.0261L78.8515 64.1943C78.8538 64.2191 78.8544 64.2368 78.8567 64.2563L78.8607 64.3041H79.1431L79.1327 64.2403C79.123 64.1519 79.118 64.0592 79.1178 63.9659C79.1146 63.8351 79.1131 63.704 79.1132 63.5728V63.1869C79.1099 62.8922 79.0776 62.6075 79.0206 62.3706C78.9585 62.0909 78.8596 61.9192 78.725 61.8519C78.8302 61.8023 78.9136 61.7226 78.9734 61.5951C79.0856 61.3721 79.1408 61.0303 79.1402 60.5558C79.1408 59.8954 79.0528 59.451 78.8762 59.2226C78.7767 59.0987 78.6215 59.0385 78.4087 59.0385H77.8106V64.3041ZM78.6698 61.4659C78.6077 61.542 78.5116 61.5828 78.384 61.5828H78.1108V59.6759H78.3673C78.5346 59.6759 78.6566 59.7379 78.7325 59.8689C78.8089 59.9999 78.8469 60.2566 78.8469 60.6408C78.8469 61.0463 78.7877 61.3207 78.6698 61.4659ZM79.5439 58.3002C79.3997 57.8487 79.2272 57.4921 79.0369 57.252C78.8466 57.0118 78.6425 56.8932 78.4369 56.9032C78.0096 56.9032 77.6421 57.3707 77.3385 58.3002C77.1916 58.7386 77.0755 59.265 76.9973 59.8469C76.919 60.4289 76.8804 61.054 76.8836 61.6837C76.8836 63.0187 77.0343 64.1553 77.3356 65.0902C77.6381 66.0286 78.0062 66.4995 78.438 66.4995C78.8699 66.4995 79.2385 66.0286 79.5427 65.0902C79.8475 64.15 80.0005 63.0151 80.0005 61.6837C80.0005 60.3611 79.8481 59.2315 79.5439 58.3002ZM79.3875 58.7658C79.6497 59.5714 79.7802 60.5452 79.7802 61.6819C79.7802 62.8328 79.6497 63.8119 79.3875 64.6228C79.1281 65.4337 78.8112 65.8409 78.4392 65.8409C78.0671 65.8409 77.7514 65.4354 77.4892 64.6228C77.3633 64.2387 77.2639 63.7802 77.1971 63.2748C77.1303 62.7693 77.0974 62.2275 77.1004 61.6819C77.1004 60.5417 77.2315 59.5714 77.4909 58.7658C77.6134 58.3745 77.7606 58.0647 77.9235 57.8555C78.0864 57.6463 78.2615 57.5421 78.438 57.5495C78.6149 57.5414 78.7904 57.6451 78.9537 57.8544C79.1171 58.0636 79.2647 58.3738 79.3875 58.7658Z" fill="white"/>
</g>
<defs>
<clipPath id="clip0_55_555">
<rect width="80" height="80" fill="white" transform="translate(0.000488281)"/>
</clipPath>
</defs>
</svg>
