<svg width="80" height="80" viewBox="0 0 80 80" fill="none" xmlns="http://www.w3.org/2000/svg">
<g clip-path="url(#clip0_55_477)">
<path d="M30.0152 44.766L29.9824 32.6853L37.7504 28.3944L29.9275 24.5795L29.7636 12.6768L25.0181 22.2803L17.2554 18.7169L21.7615 28.7981L17.363 38.8977L25.0247 35.1169L30.0152 44.766Z" fill="white"/>
<path d="M30.9856 57.4647H44.8993L62.3375 28.7499L44.8152 -2.09808e-05H31.0356L47.4237 28.7076L30.9856 57.4647Z" fill="white"/>
<path d="M0.00170898 72.921C0.00170898 69.1895 2.12045 65.5197 5.01612 65.5197C6.98854 65.5197 9.20199 68.8308 9.20199 68.8308L6.80391 70.9084C6.80391 70.9084 6.40776 69.3502 4.929 69.3502C3.42569 69.3502 2.54115 71.1881 2.53075 72.8562C2.51915 74.7208 3.54584 76.3621 4.84172 76.3621C5.85857 76.3621 6.9347 74.7389 6.9347 74.7389L8.98408 76.9464C8.98408 76.9464 7.45053 79.7382 4.8854 79.7382C2.315 79.7382 0.00170898 77.4303 0.00170898 72.921Z" fill="white"/>
<path fill-rule="evenodd" clip-rule="evenodd" d="M14.9539 65.7086C12.2568 65.7086 10.0742 68.9164 10.0742 72.8607C10.0742 76.805 12.2568 80 14.9539 80C17.651 80 19.8421 76.805 19.8421 72.8607C19.8421 68.9164 17.651 65.7086 14.9539 65.7086ZM14.9539 69.2847C16.3025 69.2847 17.398 70.8885 17.398 72.8607C17.398 74.8328 16.3025 76.4241 14.9539 76.4241C13.6054 76.4241 12.5183 74.8328 12.5183 72.8607C12.5183 70.8885 13.6054 69.2847 14.9539 69.2847ZM21.6752 65.9108V79.2798H24.0259V72.0543L27.9042 79.2798H30.2209V65.9108H27.8618V73.7237L24.0259 65.9108H21.6752ZM32.1388 65.9108L35.3127 79.2798H38.8092L41.9831 65.9108H39.4117L37.0609 76.5252L34.7102 65.9108H32.1388ZM43.6719 65.9108V79.2798H50.8938V76.1965H46.0226V73.96H50.4017V71.2306H46.0226V69.095H50.8938V65.9107L43.6719 65.9108ZM72.7775 65.9108V79.2798H79.9994V76.1965H75.1282V73.96H79.5073V71.2306H75.1282V69.095H79.9994V65.9107L72.7775 65.9108ZM53.55 66.1636V79.343H55.6377V74.1496H56.8343L58.6673 79.343H61.3575L59.5415 73.7073C61.9026 71.5993 61.4352 67.1872 58.8031 66.1636H53.55ZM55.5953 69.3478H58.0054C58.8428 69.3478 58.7885 71.2811 58.0054 71.2811H55.5953V69.3478Z" fill="white"/>
<path d="M62.6118 77.497C62.7044 78.3235 64.8924 79.8843 67.0517 79.8843C69.0346 79.8843 70.6283 78.4668 70.6283 75.6529C70.6283 72.1923 67.915 71.3912 67.915 71.3912C67.915 71.3912 65.6608 71.3439 65.6026 69.7843C65.5752 69.0506 66.2618 68.6367 66.8667 68.6367C67.8571 68.6367 68.9633 70.1058 68.9633 70.1058L70.5357 67.5808C70.5357 67.5808 68.5462 65.2395 66.8667 65.2395C65.2629 65.2395 62.9819 66.8034 62.9819 70.0599C62.9819 72.8306 65.6224 74.105 65.6224 74.105C65.6224 74.105 68.4084 74.5469 68.4084 75.8443C68.4084 76.7273 67.398 76.9921 66.8051 76.9921C65.3655 76.9921 64.1535 75.1099 64.1535 75.1099L62.6118 77.497Z" fill="white"/>
</g>
<defs>
<clipPath id="clip0_55_477">
<rect width="80" height="80" fill="white" transform="translate(0.000488281)"/>
</clipPath>
</defs>
</svg>
