<svg width="80" height="80" viewBox="0 0 80 80" fill="none" xmlns="http://www.w3.org/2000/svg">
<g clip-path="url(#clip0_55_483)">
<path d="M8.2669 71.965C8.2669 67.2467 9.2903 64.0234 10.624 64.0234C11.7894 64.0234 12.3869 66.3358 12.6411 68.5431L11.5055 70.4584C11.3932 69.2555 11.0499 68.2511 10.624 68.2511C10.0265 68.2511 9.60062 69.9562 9.60062 72.0701C9.60062 74.1839 10.0265 75.889 10.624 75.889C11.0499 75.889 11.3899 74.8847 11.5055 73.6818L12.6411 75.492C12.3869 77.5007 11.8158 80.0117 10.624 80.0117C9.2903 79.8949 8.2669 76.6832 8.2669 71.965ZM15.3416 64.0234C16.6753 64.0234 17.7284 67.235 17.7284 71.965C17.7284 76.6832 16.6786 79.9066 15.3416 79.9066C14.0045 79.9066 12.9547 76.6949 12.9547 71.965C12.9547 67.235 14.0078 64.0234 15.3416 64.0234ZM15.3416 68.146C14.7176 68.146 14.2917 69.8511 14.2917 71.965C14.2917 74.0788 14.6879 75.7839 15.3416 75.7839C15.9655 75.7839 16.3914 74.0788 16.3914 71.965C16.3914 69.8511 15.9655 68.146 15.3416 68.146ZM22.0465 69.9445L21.0792 79.6964H20.4817L19.5144 69.9445V79.6964H18.2071V64.2219H20.0261L20.792 72.0584L21.5579 64.2219H23.3769V79.6029H22.0696V69.9562H22.0465V69.9445ZM23.948 64.2219H27.2427V68.146H25.2553V69.9562H27.1866V73.8803H25.2553V75.889H27.2427V79.8131H23.948V64.2219ZM32.33 77.6876H30.6529L30.4812 79.6964H29.0617L30.6826 64.3153H32.33L33.9509 79.6964H32.5313L32.33 77.6876ZM30.9962 73.7635H31.9899L31.5079 68.3328L30.9962 73.7635ZM34.7729 73.9737C35.1129 75.0832 35.5982 75.9825 36.166 75.9825C36.4202 75.9825 36.648 75.6788 36.648 75.0832C36.648 74.4759 36.4764 74.1839 36.0241 73.8803C35.3143 73.3781 34.2051 72.7708 34.2051 68.9518C34.2051 66.3358 34.829 63.9299 36.0241 63.9299C36.7339 63.9299 37.3875 64.6307 37.8695 66.0438L37.1597 69.3606C36.79 68.3562 36.2783 67.854 35.9383 67.854C35.5982 67.854 35.5421 68.2511 35.5421 68.6599C35.5421 69.2672 35.7138 69.4657 36.1958 69.7693C36.9055 70.1664 37.9851 70.9723 37.9851 74.4876C37.9851 77.9095 37.2753 79.8131 36.1099 79.8131C35.1724 79.8131 34.5484 78.8088 34.0928 77.3956L34.7729 73.9737ZM41.25 73.565L39.6027 64.3153H41.0784L41.9037 69.5358L42.6993 64.3153H44.175L42.554 73.565V79.6964H41.2467L41.25 73.565ZM46.1953 64.0234C47.5291 64.0234 48.5822 67.235 48.5822 71.965C48.5822 76.6832 47.5324 79.9066 46.1953 79.9066C44.8583 79.9066 43.8085 76.6949 43.8085 71.965C43.8085 67.235 44.8583 64.0234 46.1953 64.0234ZM46.1953 68.146C45.5714 68.146 45.1455 69.8511 45.1455 71.965C45.1455 74.0788 45.5417 75.7839 46.1953 75.7839C46.849 75.7839 47.2452 74.0788 47.2452 71.965C47.2452 69.8511 46.8193 68.146 46.1953 68.146ZM49.0642 64.2219H50.3979V73.1679C50.3979 74.6745 50.6257 75.7839 51.1638 75.7839C51.7019 75.7839 51.9033 74.581 51.9033 73.1679V64.2219H53.237V73.2613C53.237 77.0803 52.613 79.8949 51.1341 79.8949C49.6584 79.8949 49.0311 77.0803 49.0311 73.2613V64.2219H49.0642ZM58.4101 77.6876H56.733L56.5614 79.6964H55.1418L56.7628 64.3153H58.4101L60.031 79.6964H58.6115L58.4101 77.6876ZM57.0764 73.7635H58.0701L57.5881 68.3328L57.0764 73.7635ZM62.1868 74.6745H61.7048V79.6029H60.3975V64.2219H62.7282C63.7516 64.2219 64.2897 66.6394 64.2897 69.5474C64.2897 72.1635 63.8638 73.565 63.4941 74.1723L64.2897 79.6029H62.7843L62.1868 74.6745ZM62.5301 68.146H61.7048V70.8555H62.5004C62.7282 70.8555 62.9263 70.3533 62.9263 69.454C62.956 68.6482 62.7282 68.146 62.5301 68.146ZM64.6891 64.2219H67.9838V68.146H65.9964V69.9562H67.9277V73.8803H65.9964V75.889H67.9838V79.8131H64.6891V64.2219ZM69.4034 65.3314V69.5474H69.0336V65.3314H68.6078V64.327H69.8292V65.3314H69.4034ZM71.394 69.5474V65.8336L71.0243 69.5474H70.7701L70.4004 65.8336V69.5474H70.0603V64.327H70.5423L70.9121 67.7489L71.2818 64.327H71.7638V69.5474H71.394ZM55.4554 14.073C56.535 14.073 57.5584 16.0818 58.1262 18.8964L58.1823 19.0949C58.212 19.2 58.2384 19.2934 58.2384 19.3985C58.6082 21.1037 59.2057 22.108 59.8594 22.108C60.995 22.108 61.9326 18.7912 61.9326 14.7737C61.9326 12.8584 61.7345 11.1533 61.3912 9.84526C59.9716 3.62044 58.2681 0 55.4554 0C50.9954 0 47.6149 10.9547 47.6149 26.3358C47.6149 41.9153 50.9657 52.8701 55.4554 52.8701C58.3243 52.8701 60.0013 49.3547 61.4209 43.7255C61.7345 42.4175 61.9326 40.8058 61.9326 39.0073C61.9326 34.9898 61.0247 31.7664 59.8858 31.7664C59.2618 31.7664 58.7204 32.7708 58.3507 34.2774C57.6673 36.6949 56.9014 38.9956 55.4521 38.9956C53.4053 38.9956 52.2433 33.7752 52.2433 26.3358C52.273 19.2 53.4087 14.073 55.4554 14.073ZM71.394 20.0993C69.4331 18.5927 68.5252 18.1839 68.5252 15.381C68.5252 13.3723 69.0369 12.3679 70.0603 12.3679C71.1398 12.3679 72.1335 14.1781 72.8169 16.1869C73.1305 17.2964 73.5564 17.892 74.0384 17.892C75.0321 17.892 75.8277 15.0774 75.8277 11.562C75.8277 9.75182 75.5999 8.04672 75.2301 6.93723C74.0648 2.70949 72.3877 0 70.0306 0C66.9637 0 64.4911 4.62482 64.4911 16.0818C64.4911 26.6394 66.6798 30.4584 68.6375 32.2569C70.9682 34.3708 71.876 34.3708 71.876 37.1854C71.876 39.2993 71.394 40.3036 69.9151 40.3036C68.7497 40.3036 67.6702 38.7971 66.7623 36.2861L66.7921 36.3912C66.0823 34.0788 64.9466 34.1839 64.2633 36.6949C63.6954 38.7037 63.6096 41.7168 63.9794 44.1343C63.9794 44.2394 64.0091 44.3328 64.0091 44.3328C64.0388 44.5314 64.0652 44.7299 64.1213 44.9401C64.151 45.0453 64.1774 45.2438 64.2071 45.3372C64.2369 45.4307 64.2633 45.6409 64.3194 45.7343L64.4052 46.038C65.6564 49.962 67.4457 52.9752 70.2023 52.9752C74.7184 52.9752 76.0819 45.3372 76.0819 36.0876C76.0819 25.2263 73.4673 21.8044 71.394 20.0993ZM7.84104 14.073C8.92056 14.073 9.94395 16.0818 10.5118 18.8964L10.5679 19.0949C10.5976 19.2 10.624 19.2934 10.624 19.3985C10.9938 21.1037 11.5913 22.108 12.2449 22.108C13.3806 22.108 14.3182 18.7912 14.3182 14.7737C14.3182 12.8584 14.1201 11.1533 13.7767 9.84526C12.3572 3.62044 10.6537 0 7.81463 0C3.35129 0 0.000488281 10.9547 0.000488281 26.3358C0.000488281 41.9153 3.35129 52.8701 7.84104 52.8701C10.7099 52.8701 12.3869 49.3547 13.8065 43.7255C14.1201 42.4175 14.3182 40.8058 14.3182 39.0073C14.3182 34.9898 13.4103 31.7664 12.2714 31.7664C11.6474 31.7664 11.106 32.7708 10.7363 34.2774C10.0529 36.6949 9.287 38.9956 7.86745 38.9956C5.82065 38.9956 4.6586 33.7752 4.6586 26.3358C4.63219 19.2 5.76783 14.073 7.84104 14.073ZM37.3578 39.2993C35.3407 39.2993 34.0895 34.0788 34.0895 26.5343C34.0895 18.8963 35.3407 13.7693 37.3578 13.7693C39.3749 13.7693 40.5964 18.8963 40.5964 26.5343C40.57 34.0672 39.3749 39.2993 37.3578 39.2993ZM37.3578 0C32.9275 0 29.4611 11.0599 29.4611 26.5343C29.4611 41.9153 32.9275 52.8701 37.3578 52.8701C41.7881 52.8701 45.2281 41.9153 45.2281 26.5343C45.2281 11.0599 41.7914 0 37.3578 0ZM27.1866 3.31679C26.4768 2.00876 25.9948 1.70511 24.9417 2.00876C23.0699 2.61606 21.6206 7.24088 21.3631 8.33869C21.2806 4.12263 20.2836 0.70073 19.0621 0.70073C17.7845 0.70073 16.7611 4.32117 16.7314 8.73577V44.6131C16.7611 49.0394 17.7812 52.5547 19.0621 52.5547C20.343 52.5547 21.3631 48.9343 21.3928 44.5197V34.7679C21.3928 21.5007 23.5816 18.0788 24.803 17.9854C25.1167 17.9854 25.9387 19.0949 26.5923 18.6861C27.8699 17.8803 28.6952 13.5591 28.4675 9.13285C28.2958 6.52847 27.8138 4.42628 27.1866 3.31679ZM77.102 2.70949V7.94161H76.6464V2.70949H76.105V1.40146H77.6104V2.70949H77.102ZM79.5746 7.94161V3.31679L79.0926 7.94161H78.779L78.297 3.31679V7.94161H77.8712V1.40146H78.4951L78.9507 5.72263L79.4063 1.40146H80.0038V7.94161H79.5746Z" fill="white"/>
</g>
<defs>
<clipPath id="clip0_55_483">
<rect width="80" height="80" fill="white" transform="translate(0.000488281)"/>
</clipPath>
</defs>
</svg>
