<svg width="80" height="70" viewBox="0 0 80 70" fill="none" xmlns="http://www.w3.org/2000/svg">
<g clip-path="url(#clip0_55_549)">
<path d="M20.0137 1.95767C21.9948 1.95767 23.601 6.11447 23.601 11.2437C23.601 16.3737 21.9948 20.5305 20.0137 20.5305H3.60822C1.62685 20.5305 0.020752 16.3737 0.020752 11.2437C0.020752 6.11447 1.62685 1.95767 3.60809 1.95767H20.0137Z" fill="white"/>
<path d="M18.3646 26.2918C20.3461 26.2918 21.9522 30.4492 21.9522 35.5785C21.9522 40.7078 20.3461 44.8653 18.3646 44.8653H9.02716C8.23076 44.8726 7.57892 46.5036 7.54843 48.5445V60.6484C7.54843 65.777 5.94234 69.9344 3.96149 69.9344C1.98012 69.9344 0.374023 65.777 0.374023 60.6484V40.0497C0.374023 32.4517 2.75326 26.2915 5.68837 26.2915L18.3646 26.2918ZM25.23 9.28672C25.23 4.15812 26.8361 -1.52588e-05 28.8173 -1.52588e-05C30.7988 -1.52588e-05 32.4046 4.15812 32.4046 9.28672V60.7132C32.4046 65.8425 30.7989 70 28.8173 70C26.8362 70 25.23 65.8422 25.23 60.7132V9.28672ZM69.3821 51.5803L70.8237 51.571C70.9652 51.5706 71.1009 51.4249 71.2009 51.1659C71.3009 50.9069 71.3572 50.5558 71.3573 50.1895C71.3595 50.0081 71.3466 49.8276 71.3195 49.6601L65.9591 26.3413L57.5848 63.8792C56.9379 66.7819 55.7763 68.4373 54.5708 68.5205C54.5349 68.5336 54.4986 68.5402 54.4623 68.5403H40.8338C37.8985 68.5403 35.5192 62.3803 35.5192 54.7824V9.28739C35.5192 4.15845 37.1254 0.000318974 39.1065 0.000318974C41.0875 0.000318974 42.6938 4.15845 42.6938 9.28706V46.1377C42.6964 48.2004 43.3263 49.8889 44.1152 49.9658H51.7389C51.935 49.8096 52.5347 49.2819 52.7173 48.5472L62.2931 5.6349C63.0197 2.40511 64.3713 0.230732 65.9184 0.230732C67.4662 0.230732 68.8181 2.40845 69.5415 5.64493L78.8724 46.2003C79.5923 48.6231 79.9818 51.595 79.98 54.6516C79.98 62.3221 77.578 68.5396 74.6156 68.5396H63.739C61.9292 68.5396 60.4634 64.7426 60.4634 60.0588C60.4634 55.3766 61.9293 51.5803 63.739 51.5803H69.3821Z" fill="white"/>
</g>
<defs>
<clipPath id="clip0_55_549">
<rect width="80" height="70" fill="white" transform="translate(0.000488281)"/>
</clipPath>
</defs>
</svg>
