<svg width="80" height="80" viewBox="0 0 80 80" fill="none" xmlns="http://www.w3.org/2000/svg">
<g clip-path="url(#clip0_55_464)">
<path d="M45.1669 7.31334V7.06334C45.1669 5.89667 45.5436 4.85334 46.2936 3.93667C47.0436 3.02001 48.0002 2.56334 49.1669 2.56334C50.3336 2.56334 51.3769 2.93667 52.2936 3.68667C53.2102 4.43667 53.7102 5.43667 53.7936 6.68667C53.8769 7.93667 53.5002 8.98001 52.6669 9.81334C51.8336 10.6467 50.8336 11.0633 49.6669 11.0633L48.9169 11.3133L49.1669 11.6867L48.9169 13.0633L48.4169 17.0633C48.5836 17.23 48.6669 17.3967 48.6669 17.5633L48.1669 20.0633C48.0002 20.3967 47.8336 20.6467 47.6669 20.8133L47.4169 21.8133C46.9805 23.5809 46.4802 25.3321 45.9169 27.0633V27.5633C45.7502 28.3967 45.6269 29.0633 45.5436 29.5633C45.4602 30.0633 45.1669 30.8967 44.6669 32.0633C44.3336 32.73 44.3336 33.8133 44.6669 35.3133L44.9169 35.5633C44.9169 36.0633 45.1269 36.6467 45.5436 37.3133C45.9602 37.98 46.1669 38.5633 46.1669 39.0633C46.3336 42.3967 46.0836 45.23 45.4169 47.5633L45.9169 49.0633C47.9169 50.0633 48.5002 51.1467 47.6669 52.3133L48.9169 52.8133C50.9169 53.8133 52.3336 54.6867 53.1669 55.4367C54.0002 56.1867 54.8336 56.98 55.6669 57.8133C56.3336 57.98 56.8336 58.23 57.1669 58.5633L57.9169 58.8133C61.4169 61.1467 64.9169 63.98 68.4169 67.3133L69.4169 68.0633V68.3133L69.1669 68.8133L69.9169 69.3133H70.1669C70.6669 69.6467 71.0002 69.8133 71.1669 69.8133H71.4169C71.5836 69.8133 71.7502 69.73 71.9169 69.5633L72.4169 69.3133C72.7502 68.98 73.0836 68.73 73.4169 68.5633H74.4169C74.5836 68.5633 74.5836 68.6467 74.4169 68.8133L73.4169 69.3133L72.1669 70.8133H73.9169L75.6669 71.0633C76.1669 70.8967 76.5836 70.73 76.9169 70.5633L78.1669 69.8133C78.6669 69.6467 79.1669 69.8133 79.6669 70.3133H79.9169C80.0836 70.48 80.0002 70.73 79.6669 71.0633L76.6669 73.8133C75.8336 74.48 75.0836 74.8967 74.4169 75.0633L71.1669 77.3133C71.0002 77.48 70.8336 77.48 70.6669 77.3133L69.9169 76.3133L69.4169 75.3133L68.7902 74.4367L68.0402 73.4367L67.4169 72.6867L66.9169 72.0633L65.9169 71.3133C65.5836 71.3133 65.2502 71.23 64.9169 71.0633L61.6669 68.5633C61.1669 68.5633 60.5836 68.3133 59.9169 67.8133C57.4169 65.6467 55.7502 64.3133 54.9169 63.8133L53.4169 62.8133L50.4169 62.3133C49.4169 62.1467 48.0836 61.6467 46.4169 60.8133L44.4169 59.8133C43.0836 59.1467 42.1669 58.8133 41.6669 58.8133L40.6669 58.3133C40.0002 58.1467 39.5002 57.98 39.1669 57.8133L38.6669 57.3133C38.3336 57.3133 38.0002 57.3967 37.6669 57.5633L32.6669 60.0633L26.4169 62.8133C24.7502 64.1467 23.1669 65.23 21.6669 66.0633L18.9169 67.3133L14.6669 70.3133C14.3336 70.6467 14.0002 70.6467 13.6669 70.3133L13.1669 70.8133C12.6669 70.98 12.3336 71.0633 12.1669 71.0633L11.1669 71.5633V72.0633H10.6669L10.1669 72.8133C9.83358 73.48 9.50024 73.8533 9.16691 73.9367C8.83358 74.02 8.62691 74.1467 8.54358 74.3133C8.4802 74.4501 8.39584 74.576 8.29358 74.6867L7.79358 75.1867L7.04358 75.6867L5.91691 75.5633L4.41691 75.8133L3.41691 76.0633C2.58358 76.23 1.91691 76.1033 1.41691 75.6867C0.916911 75.27 0.500244 74.6467 0.166911 73.8133C-0.166423 73.3133 0.000244141 72.8967 0.666911 72.5633L0.916911 72.3133C1.08358 72.1467 1.33358 72.0633 1.66691 72.0633H3.16691L5.16691 71.3133L6.16691 71.0633C6.16691 70.73 6.25024 70.48 6.41691 70.3133C6.58358 70.1467 6.83358 70.0633 7.16691 70.0633V69.8133C7.00627 69.5042 6.92063 69.1617 6.91691 68.8133C6.75024 68.48 6.70691 68.23 6.79358 68.0633C6.87691 67.8967 6.96024 67.8133 7.04358 67.8133H7.16691L7.41691 68.5633C7.58358 69.3967 7.83358 69.6467 8.16691 69.3133L8.41691 68.8133C8.58358 68.48 8.83358 68.3133 9.16691 68.3133L9.66691 68.8133L10.1669 68.3133L9.91691 68.0633C9.91691 67.8967 10.0002 67.8133 10.1669 67.8133L11.1669 66.8133C12.0002 65.8133 13.0002 64.8967 14.1669 64.0633C16.5002 62.23 19.0002 60.8133 21.6669 59.8133C22.5002 58.98 23.4169 58.5633 24.4169 58.5633C25.0836 57.3967 26.0836 56.1467 27.4169 54.8133C28.5836 53.98 29.4169 53.3967 29.9169 53.0633C30.2502 52.3967 30.6669 52.0633 31.1669 52.0633H31.4169L31.9169 51.5633C32.2502 51.3967 32.5002 51.23 32.6669 51.0633V49.8133C32.6669 48.98 32.7502 48.3133 32.9169 47.8133C33.0836 47.3133 33.5002 47.0633 34.1669 47.0633L35.1669 46.0633C34.8336 45.3967 34.6669 44.6467 34.6669 43.8133H34.4169C34.0836 43.3133 33.9169 42.8133 33.9169 42.3133C33.4169 41.48 33.0836 40.8133 32.9169 40.3133H32.1669C32.0002 40.8133 31.5836 41.1467 30.9169 41.3133L30.6669 41.8133C30.0002 42.98 29.4169 43.8533 28.9169 44.4367C28.4169 45.02 27.5002 45.73 26.1669 46.5633C25.3336 47.3967 24.7502 48.3133 24.4169 49.3133C24.2502 49.8133 24.2502 50.3133 24.4169 50.8133L24.1669 51.3133H24.4169C24.4169 51.6467 24.5002 51.8133 24.6669 51.8133H24.9169C25.2502 51.98 25.4169 52.1867 25.4169 52.4367C25.4169 52.6867 25.1669 52.77 24.6669 52.6867C24.2496 52.6408 23.857 52.466 23.5436 52.1867C23.2936 51.9367 23.0836 51.8133 22.9169 51.8133L22.1669 52.5633C21.8336 53.0633 21.5002 53.27 21.1669 53.1867C20.8336 53.1033 20.7502 52.98 20.9169 52.8133L21.1669 52.5633C21.3336 52.23 21.3336 52.0633 21.1669 52.0633L19.1669 52.5633C19.0002 52.73 18.7936 52.73 18.5436 52.5633C18.2936 52.3967 18.3336 52.23 18.6669 52.0633L19.9169 51.5633C19.9169 51.3967 19.8336 51.3133 19.6669 51.3133C19.0002 51.6467 18.3336 51.73 17.6669 51.5633L16.4169 51.3133L16.1669 51.0633C16.1669 50.8967 16.2502 50.8133 16.4169 50.8133C17.0836 50.98 17.9169 50.8967 18.9169 50.5633L20.6669 49.8133L22.6669 47.5633L22.9169 47.0633C23.5836 45.73 24.2936 44.52 25.0436 43.4367C25.7038 42.4521 26.5032 41.5685 27.4169 40.8133L27.6669 39.8133C28.0002 39.1467 28.3336 38.5633 28.6669 38.0633C29.0002 37.5633 29.4169 36.8967 29.9169 36.0633L30.6669 35.0633C31.3336 34.0633 32.0836 33.5633 32.9169 33.5633L33.6669 32.8133C33.8336 32.6467 33.9169 32.3967 33.9169 32.0633L34.4169 31.5633L34.1669 31.3133C33.1669 30.48 32.6669 29.73 32.6669 29.0633C32.5002 27.8967 32.8769 26.8967 33.7936 26.0633C34.7102 25.23 35.6269 24.8533 36.5436 24.9367C37.4602 25.02 38.1669 25.3133 38.6669 25.8133L39.1669 26.3133C39.3336 26.3133 39.4169 26.3967 39.4169 26.5633L40.4169 27.0633V27.8133C40.7502 28.1467 40.9169 28.3967 40.9169 28.5633C41.2502 28.0633 41.7502 27.48 42.4169 26.8133L43.6669 22.8133C43.6669 22.1467 43.8336 21.48 44.1669 20.8133L44.6669 20.0633V19.5633L45.4169 16.5633H45.9169L46.6669 13.5633C46.8344 12.992 46.8344 12.3846 46.6669 11.8133L45.6669 9.31334L45.1669 7.31334Z" fill="white"/>
</g>
<defs>
<clipPath id="clip0_55_464">
<rect width="80" height="80" fill="white" transform="translate(0.000244141)"/>
</clipPath>
</defs>
</svg>
