<svg width="80" height="80" viewBox="0 0 80 80" fill="none" xmlns="http://www.w3.org/2000/svg">
<g clip-path="url(#clip0_55_462)">
<path d="M80.0004 26L21.4737 50.92C16.6204 52.9733 12.5437 54.0033 9.24702 54.0033C5.51369 54.0033 2.80369 52.6967 1.12369 50.08C0.0670227 48.4 -0.242977 46.27 0.190356 43.6867C0.623689 41.1033 1.77702 38.3533 3.64369 35.4267C5.20036 33.06 7.75036 29.95 11.3004 26.0933C10.0962 27.9889 9.21326 30.0702 8.68702 32.2533C7.75369 36.2367 8.59369 39.16 11.207 41.0267C12.4504 41.8967 14.1604 42.3333 16.3404 42.3333C18.0804 42.3333 20.0404 42.0533 22.2204 41.4933L80.0004 26Z" fill="white"/>
</g>
<defs>
<clipPath id="clip0_55_462">
<rect width="80" height="80" fill="white" transform="translate(0.000244141)"/>
</clipPath>
</defs>
</svg>
