<svg width="80" height="80" viewBox="0 0 80 80" fill="none" xmlns="http://www.w3.org/2000/svg">
<g clip-path="url(#clip0_55_458)">
<path d="M79.4836 10.0267C78.0936 8.25001 75.6636 9.67334 74.5936 10.2933C66.9802 14.78 65.8569 22.68 63.2036 27.2167C61.1169 30.85 57.6969 33.5167 54.6036 33.7233C52.3169 33.8867 49.8369 33.4433 47.3769 32.3733C41.3536 29.77 38.1102 26.4 37.3202 25.8067C35.6969 24.5733 23.2202 12.4233 13.0536 11.9267C13.0536 11.9267 11.8136 9.42667 11.5036 9.38334C10.7636 9.30001 10.0036 10.8867 9.45023 11.0533C8.95023 11.23 8.07356 9.34667 7.56689 9.43001C7.05689 9.49667 6.56023 11.3833 5.56689 12.3533C4.83356 13.0633 3.94689 13.02 3.44356 13.8967C3.27023 14.2167 3.33023 14.78 3.13356 15.2967C2.71023 16.3633 1.29689 16.4767 1.28356 17.62C1.28356 18.89 2.47356 19.1333 3.51356 20.02C4.34023 20.7267 4.39689 21.2267 5.36023 21.5567C6.22023 21.85 7.46689 20.9333 8.57356 21.2633C9.49689 21.5333 10.3836 21.73 10.5802 22.6733C10.7602 23.5267 10.5802 24.8667 9.44689 24.7167C9.07356 24.6667 7.45356 24.1367 5.45356 24.35C3.03689 24.6067 0.276892 25.38 0.00689204 28.05C-0.129775 29.54 1.72023 31.2833 3.52356 30.9367C4.76023 30.7 4.17689 29.25 4.85356 28.55C5.74356 27.65 10.7602 31.6967 15.4269 31.6967C17.4036 31.6967 18.8636 31.1967 20.3169 29.68C20.4502 29.5833 20.6269 29.34 20.8336 29.3133C21.0653 29.3735 21.2851 29.4727 21.4836 29.6067C25.2536 32.5967 28.0969 38.6067 41.9169 38.6767C43.8569 38.7 46.0836 39.6067 47.9036 41.2667C49.5036 42.71 50.4502 45.0167 51.3602 47.35C52.7536 50.86 55.2302 54.2467 59.0002 58.0267C59.2002 58.2533 62.3002 60.6267 62.5336 60.8033C62.5736 60.8367 62.8136 61.36 62.7102 61.6533C62.6436 63.9533 62.3002 70.5533 67.2602 70.83C68.4802 70.8967 68.1769 70.06 68.1769 69.4633C68.1602 68.3267 67.9602 67.18 68.5536 65.9967C69.3969 64.4033 66.8002 63.6333 66.8569 60.1433C66.9202 57.53 64.7069 57.9733 63.5769 55.9767C62.9436 54.8333 62.3502 54.2033 62.4102 52.8233C62.6536 44.89 60.6869 39.6633 59.7269 38.4C58.9702 37.42 58.3169 37.0567 59.0369 36.6C63.1702 33.8833 64.1202 31.3533 64.1202 31.3533C66.3202 26.2167 68.3069 21.5367 71.0369 19.4533C71.5902 19.0533 73.0002 17.9867 73.8769 17.5867C76.4202 16.38 77.7869 15.66 78.5036 14.96C79.6902 13.8367 80.6202 11.45 79.4836 10.0267Z" fill="white"/>
</g>
<defs>
<clipPath id="clip0_55_458">
<rect width="80" height="80" fill="white" transform="translate(0.000244141)"/>
</clipPath>
</defs>
</svg>
