<svg width="80" height="80" viewBox="0 0 80 80" fill="none" xmlns="http://www.w3.org/2000/svg">
<g clip-path="url(#clip0_55_460)">
<path d="M49.9702 38.2667C59.1469 34.6 64.8602 32.4933 80.0002 28.8C71.7769 29.3433 53.5936 30.59 41.0602 33.0367L49.9702 38.27M21.4369 50.44H33.4369C35.8136 46.84 38.1769 45.0867 40.9302 43.1367C38.8391 42.3281 36.7367 41.5491 34.6236 40.8C26.9669 44.18 22.7069 48.7167 21.4469 50.44M23.8102 37.3467C13.1102 41.17 7.16358 45.3233 3.14691 50.44H16.3969C17.6869 48.6433 22.6036 43.4633 31.8402 39.86C29.1813 38.9631 26.5062 38.1251 23.8102 37.3467ZM29.3002 29.2933H0.000244141C29.5402 34.6267 43.7769 41.4933 66.6669 51.2C64.7102 49.7367 33.1636 31.1567 29.3036 29.2933" fill="white"/>
</g>
<defs>
<clipPath id="clip0_55_460">
<rect width="80" height="80" fill="white" transform="translate(0.000244141)"/>
</clipPath>
</defs>
</svg>
