<svg width="80" height="80" viewBox="0 0 80 80" fill="none" xmlns="http://www.w3.org/2000/svg">
<g clip-path="url(#clip0_55_552)">
<path d="M79.5101 9.93662C79.5101 9.93662 77.2166 7.56955 69.7894 3.93252C63.2724 0.734508 58.2945 -7.62939e-06 58.2945 -7.62939e-06L58.3191 18.9645C58.3191 26.9802 51.5255 35.4918 39.9232 35.4918H39.5913C27.9904 35.4918 21.1991 26.9802 21.1991 18.9645L21.2218 -7.62939e-06C21.2218 -7.62939e-06 16.2485 0.734064 9.72879 3.93252C2.30198 7.56955 0.00878906 9.93662 0.00878906 9.93662C0.559343 25.1464 18.2804 37.6776 39.755 37.6842H39.76C61.2359 37.6776 78.9612 25.1464 79.5101 9.93662Z" fill="white"/>
<path d="M79.5196 52.5239C79.5196 52.5239 77.2264 54.8843 69.7993 58.5244C63.2776 61.7229 58.304 62.4538 58.304 62.4538L58.3289 43.4924C58.3289 35.4785 51.535 26.97 39.9331 26.97L39.7698 26.9633H39.7648L39.6038 26.97C28.0005 26.97 21.2092 35.4785 21.2092 43.4924L21.2346 62.4538C21.2346 62.4538 16.2586 61.7229 9.73927 58.5244C2.31446 54.8843 0.0166016 52.5239 0.0166016 52.5239C0.567155 37.3154 18.2928 24.7842 39.7701 24.7745C61.2457 24.7842 78.9717 37.3154 79.5196 52.5239ZM3.87814 79.9596C2.06785 79.9596 2.03519 78.1222 2.03519 77.4121V74.067C2.03519 73.8586 2.02519 73.5907 2.34712 73.5907H3.27993C3.58653 73.5907 3.5692 73.8728 3.5692 74.067V77.4121C3.5692 77.6534 3.59953 78.291 4.25806 78.291H5.82707C6.47327 78.291 6.51093 77.6534 6.51093 77.4121V74.067C6.51093 73.8724 6.49027 73.5907 6.79521 73.5907H7.74035C8.08028 73.5907 8.04962 73.8728 8.04962 74.067V77.4121C8.04962 78.1235 8.01429 79.9596 6.20166 79.9596M12.55 79.5508C11.9115 78.4043 10.9987 76.9628 10.0685 75.4334V79.5099C10.0685 79.6907 10.1012 79.9596 9.78193 79.9596H8.90944C8.59517 79.9596 8.6305 79.6912 8.6305 79.5099V74.0586C8.6305 73.871 8.61783 73.5889 8.90944 73.5889H10.6114C11.0917 73.5889 11.7782 74.8762 12.2258 75.7342C12.5754 76.3781 13.2139 77.3565 13.6438 78.0946V74.0581C13.6438 73.8706 13.6261 73.5884 13.9431 73.5884H14.8909C15.1925 73.5884 15.1755 73.8706 15.1755 74.0581V79.9578H13.4282C13.0529 79.9596 12.892 79.9933 12.55 79.5508ZM15.7534 79.9596V73.5969H19.9698C20.2264 73.5969 21.9588 73.5507 21.9588 75.9768C21.9588 78.451 22.1574 79.9596 20.0052 79.9596H17.7323L17.2421 78.6323V79.9596M19.7459 78.2835C20.5127 78.2835 20.4547 77.305 20.4547 76.8553C20.4547 75.3534 20.1378 75.2921 19.6326 75.2921H17.2264V78.2826L19.7459 78.2835ZM23.6081 73.6373H27.4953C27.8222 73.6373 27.7796 73.9244 27.7796 74.4549C27.7796 74.9508 27.8299 75.2325 27.4953 75.2325H24.4229C24.3423 75.2325 24.061 75.1797 24.061 75.5614C24.061 75.9502 24.008 76.1048 24.3149 76.1048H27.0304L27.468 77.2641C27.5306 77.425 27.5233 77.5663 27.2843 77.5663H24.4729L24.038 76.4327V78.1026C24.038 78.4914 24.2969 78.4177 24.3723 78.4177H27.5629C27.8799 78.4177 27.8522 78.7127 27.8522 79.1953C27.8522 79.7116 27.8799 80.0004 27.5629 80.0004H23.5248C23.1878 80.0004 22.5316 79.8605 22.5316 78.4576V74.9513C22.5316 74.5824 22.6749 73.6373 23.6081 73.6373ZM28.8277 73.5964H33.0795C33.65 73.5964 34.4799 73.5893 34.4799 75.6422C34.4799 76.9833 34.2662 77.0499 33.8083 77.4659C34.5752 77.6405 34.4722 78.9473 34.4722 79.6241C34.4722 79.9667 34.3792 79.9591 34.3036 79.9591H33.0565C32.7949 79.9591 32.8578 79.4099 32.8578 79.1215C32.8578 78.3439 32.5309 78.3768 32.4026 78.3768H30.5673C30.3914 77.9675 30.0494 77.0557 30.0494 77.0557V79.6974L29.8155 79.9587H28.5607L28.4351 79.7503V74.1456C28.4354 73.7511 28.644 73.5964 28.8277 73.5964ZM32.2143 75.2796H30.321C30.0041 75.2796 30.0194 75.4196 30.0194 75.548V76.6869H31.968C32.9135 76.6869 32.9135 76.3719 32.9135 76.0435C32.9132 75.3867 32.8732 75.2796 32.2143 75.2796ZM41.8013 73.6373C42.1133 73.6373 42.4172 73.8248 42.7451 74.6762C42.9664 75.2863 44.5105 79.0078 44.8371 79.7854V79.9995H43.2281L42.7648 78.8798H40.8079L40.3846 77.5987C40.2643 77.86 39.6181 79.4961 39.3968 79.9987H37.7828V79.8587C38.1121 79.0335 40.36 73.636 40.36 73.636M41.2988 75.4009L40.5093 77.3112L40.5823 77.4059H42.0456L42.1186 77.3112L41.3721 75.3943L41.2988 75.4009ZM45.8578 73.5964H50.1123C50.6805 73.5964 51.5103 73.5893 51.5103 75.6422C51.5103 76.9833 51.2987 77.0499 50.8412 77.4659C51.6113 77.6405 51.505 78.9473 51.505 79.6241C51.505 79.9667 51.4094 79.9591 51.3337 79.9591H50.0866C49.8257 79.9591 49.8907 79.4099 49.8907 79.1215C49.8907 78.3439 49.5641 78.3768 49.4384 78.3768H47.5985C47.4222 77.9675 47.0796 77.0557 47.0796 77.0557V79.6974L46.8493 79.9587H45.5919L45.4663 79.7503V74.1456C45.4659 73.7511 45.6769 73.5964 45.8578 73.5964ZM49.2475 75.2796H47.3519C47.0349 75.2796 47.0506 75.4196 47.0506 75.548V76.6869H49.0015C49.9417 76.6869 49.9417 76.3719 49.9417 76.0435C49.9413 75.3867 49.9067 75.2796 49.2475 75.2796ZM55.2266 79.9596C54.9103 79.1686 54.0302 76.9828 53.4366 75.548V79.5174C53.4366 79.685 53.4569 79.9596 53.1503 79.9596H52.2905C51.9686 79.9596 51.9936 79.685 51.9936 79.5174V74.0657C51.9936 73.871 51.9733 73.596 52.2905 73.596H53.7792C54.0005 73.596 54.3168 73.5293 54.669 74.4745C54.936 75.2321 55.4985 76.8082 55.8914 77.6396C56.2834 76.8082 56.8619 75.2321 57.1282 74.4745C57.4751 73.5293 57.7817 73.596 58.0337 73.596H59.517C59.8183 73.596 59.7833 73.871 59.7833 74.0657V79.5174C59.7833 79.685 59.829 79.9596 59.517 79.9596H58.6469C58.3303 79.9596 58.3553 79.685 58.3553 79.5174V75.548C57.7517 76.9828 56.8816 79.1677 56.5503 79.9596M61.6933 79.9729C60.2852 79.9729 60.3459 77.9622 60.3459 76.6482C60.3459 75.4538 60.2449 73.584 62.0099 73.564H65.1479C66.9182 73.564 66.8022 75.4618 66.8022 76.6482C66.8022 77.9622 66.8732 79.9729 65.4395 79.9729M64.5293 78.3368C65.2439 78.3368 65.2182 77.3512 65.2182 76.6949C65.2182 76.0977 65.3238 75.1721 64.393 75.1721H62.8147C61.8899 75.1721 61.9999 76.0977 61.9999 76.6949C61.9999 77.3521 61.9545 78.3368 62.6691 78.3368H64.5293ZM69.1607 79.9596C67.3554 79.9596 67.3204 78.1222 67.3204 77.4121V74.067C67.3204 73.8586 67.3108 73.5907 67.6327 73.5907H68.5685C68.8751 73.5907 68.8545 73.8728 68.8545 74.067V77.4121C68.8545 77.6534 68.8848 78.291 69.5433 78.291H71.112C71.7609 78.291 71.7962 77.6534 71.7962 77.4121V74.067C71.7962 73.8724 71.7812 73.5907 72.0825 73.5907H73.0226C73.3645 73.5907 73.3349 73.8728 73.3349 74.067V77.4121C73.3349 78.1235 73.3042 79.9596 71.4842 79.9596M74.34 73.5964H78.5948C79.163 73.5964 79.9922 73.5893 79.9922 75.6422C79.9922 76.9833 79.7762 77.0499 79.3186 77.4659C80.0885 77.6405 79.9878 78.9473 79.9878 79.6241C79.9878 79.9667 79.8922 79.9591 79.8165 79.9591H78.5695C78.3128 79.9591 78.3735 79.4099 78.3735 79.1215C78.3735 78.3439 78.0416 78.3768 77.9159 78.3768H76.0803C75.9047 77.9675 75.5621 77.0557 75.5621 77.0557V79.6974L75.3258 79.9587H74.0734L73.9477 79.7503V74.1456C73.9477 73.7511 74.159 73.5964 74.34 73.5964ZM77.7243 75.2796H75.8334C75.5164 75.2796 75.5314 75.4196 75.5314 75.548V76.6869H77.4827C78.4228 76.6869 78.4228 76.3719 78.4228 76.0435C78.4235 75.3867 78.3832 75.2796 77.7243 75.2796Z" fill="white"/>
</g>
<defs>
<clipPath id="clip0_55_552">
<rect width="80" height="80" fill="white" transform="translate(0.000488281)"/>
</clipPath>
</defs>
</svg>
