<svg width="80" height="80" viewBox="0 0 80 80" fill="none" xmlns="http://www.w3.org/2000/svg">
<g clip-path="url(#clip0_55_471)">
<path fill-rule="evenodd" clip-rule="evenodd" d="M0.000488281 0H8.48491L13.1862 48.2159L17.7723 0H75.9037L73.955 13.8496H24.8816L17.4286 77.2828H8.94375L0.000488281 0Z" fill="white"/>
<path fill-rule="evenodd" clip-rule="evenodd" d="M77.3948 59.3298C77.6242 66.8523 74.7579 78.3084 68.4511 78.3084C61.1138 78.3084 59.5083 64.8017 59.5083 59.1588H65.4705C65.4705 62.4068 67.3054 65.6563 68.681 65.6563C70.057 65.6563 71.4336 63.0911 71.4336 61.3819C71.4336 59.6713 70.9747 57.1075 68.7966 54.8844C61.6869 48.558 60.0818 41.2052 60.0818 34.8795C59.8524 27.3563 62.26 16.2423 68.5663 16.2423C74.873 16.2423 76.5928 29.4083 76.5928 34.8795H70.9747C70.9747 31.8018 69.5987 29.5794 68.2231 29.5794C66.847 29.5794 65.9293 31.6307 65.9293 33.3413C65.9293 35.0512 66.1587 36.59 68.3378 38.8124C71.3184 40.8644 77.3948 47.5323 77.3948 59.3298ZM77.7353 73.8636C77.9767 73.8631 78.2158 73.9336 78.439 74.0711C78.6621 74.2087 78.8648 74.4105 79.0355 74.6651C79.2062 74.9196 79.3416 75.2219 79.4338 75.5546C79.526 75.8874 79.5733 76.2439 79.5729 76.604C79.5745 76.9653 79.5281 77.3235 79.4365 77.658C79.3448 77.9924 79.2097 78.2966 79.0389 78.5528C78.8681 78.8091 78.665 79.0125 78.4412 79.1512C78.2175 79.29 77.9776 79.3613 77.7353 79.3612C77.4923 79.3623 77.2515 79.2917 77.0269 79.1535C76.8022 79.0154 76.5981 78.8123 76.4263 78.5561C76.2544 78.2998 76.1182 77.9954 76.0256 77.6604C75.9329 77.3254 75.8856 76.9663 75.8863 76.604C75.8863 75.0868 76.7129 73.8636 77.7353 73.8636V73.2262C76.4753 73.2262 75.4584 74.7427 75.4584 76.6046C75.458 77.0507 75.5166 77.4925 75.6309 77.9047C75.7451 78.3169 75.9128 78.6915 76.1244 79.0069C76.3359 79.3223 76.587 79.5724 76.8635 79.7428C77.1399 79.9132 77.4362 80.0006 77.7353 80C78.9835 80 80.0008 78.4836 80.0008 76.6046C79.9999 75.7091 79.7609 74.8506 79.3362 74.2173C78.9115 73.5841 78.3359 73.2277 77.7353 73.2262V73.8636Z" fill="white"/>
<path fill-rule="evenodd" clip-rule="evenodd" d="M77.2787 75.338H77.8736C78.1108 75.338 78.4576 75.338 78.4576 75.8111C78.4576 76.2768 78.2665 76.3718 77.9952 76.3623H77.2787V76.906H77.758L78.301 78.4571H78.8619L78.266 76.906C78.6998 76.8626 78.9365 76.5863 78.9365 75.9238C78.9365 75.5444 78.8673 75.1907 78.6475 74.9762C78.4626 74.8038 78.1913 74.7943 77.9833 74.7943H76.798V78.4571H77.2782L77.2787 75.338ZM27.862 56.766L30.1553 34.538L32.4486 56.766H27.862ZM26.4864 69.2471H33.5952L34.5124 77.2828H45.8632V45.481L52.8573 77.2828H58.7048V18.124H52.7426V48.2165L46.0927 18.124H39.9015V73.6926L33.4805 18.124H26.8301L19.9507 77.2828H25.7981L26.4864 69.2471Z" fill="white"/>
</g>
<defs>
<clipPath id="clip0_55_471">
<rect width="80" height="80" fill="white" transform="translate(0.000488281)"/>
</clipPath>
</defs>
</svg>
