<svg width="80" height="40" viewBox="0 0 80 40" fill="none" xmlns="http://www.w3.org/2000/svg">
<path d="M40.5633 14.3533L44.2667 7.89667L56.8467 7.09L57.2867 6.30334L45.66 5.49667L48.3933 0.783336H69.96C76.5933 0.783336 81.4933 3.16667 79.5833 10.1167C79.0167 12.2433 76.32 17.56 68.3967 19.78C70.0867 19.98 74.2633 21.8333 73.53 26.6367C72.25 35.1633 61.23 39.2167 55.0867 39.2167L29.6167 39.2367L28.35 34.3033L41.7 33.37L42.1567 32.58L27.67 31.7L26.1133 25.85L46.7067 24.64L47.1633 23.87L10.1767 21.56L11.9567 18.4767L51.7833 15.8933L52.2433 15.1233L40.5633 14.3533ZM57.23 15.6367L60.8967 15.6167C63.3567 15.6 65.9033 14.4833 66.84 12.2233C67.7033 10.1167 66.5467 8.32 65.0067 8.33667H61.45L57.23 15.6367ZM52.9967 22.9533L48.5767 30.6367H52.7933C54.7567 30.6367 58.26 29.6633 59.34 26.8767C60.3467 24.2733 58.4967 22.9533 57.2133 22.9533H52.9933H52.9967ZM20.8667 34.8167L18.3 39.2L0 39.2333L1.78 36.1567L20.8667 34.8167ZM22.15 0.763336L36.8733 0.783336L37.9933 4.94334L20.4067 3.84334L22.15 0.763336ZM38.8167 8.24667L40.43 14.3533L15.29 12.7033L17.05 9.63667L38.8167 8.24667ZM26.0167 25.85L22.8267 31.3867L5.09333 30.38L6.87333 27.3L26.0167 25.85Z" fill="white"/>
</svg>
